<?xml version="1.0" encoding="UTF-8"?>
<svg xmlns="http://www.w3.org/2000/svg" viewBox="0 0 1400 1000" width="1400" height="1000">
  <defs>
    <style>
      .title { font: bold 24px Arial; fill: #1e3a5f; }
      .subtitle { font: 14px Arial; fill: #666; }
      .node-title { font: bold 10px Arial; fill: white; }
      .node-duration { font: 9px Arial; fill: white; }
      .node-dates { font: 8px Arial; fill: #e0e7ff; }
      .node-responsible { font: italic 8px Arial; fill: #c7d2fe; }
      .arrow-label { font: 9px Arial; fill: #666; }
      .critical { stroke: #dc2626; stroke-width: 2; }
      .normal { stroke: #6b7280; stroke-width: 2; }
      .legend-text { font: 10px Arial; fill: #333; }
      .phase-label { font: bold 14px Arial; }
    </style>
    <!-- Kleine Marker mit refX am Ende der Pfeilspitze -->
    <marker id="arrowhead" markerWidth="8" markerHeight="6" refX="8" refY="3" orient="auto">
      <polygon points="0 0, 8 3, 0 6" fill="#6b7280"/>
    </marker>
    <marker id="arrowhead-critical" markerWidth="8" markerHeight="6" refX="8" refY="3" orient="auto">
      <polygon points="0 0, 8 3, 0 6" fill="#dc2626"/>
    </marker>
  </defs>
  
  <!-- Background -->
  <rect width="1400" height="1000" fill="#fafafa"/>
  
  <!-- Title -->
  <text x="700" y="35" text-anchor="middle" class="title">INSPECTAIR - Netzplan (Vorgangsknotennetz)</text>
  <text x="700" y="55" text-anchor="middle" class="subtitle">Kritischer Pfad rot markiert | FAZ=Frühester Anfang, FEZ=Frühestes Ende, SAZ=Spätester Anfang, SEZ=Spätestes Ende</text>
  
  <!-- Phase Labels -->
  <text x="150" y="100" class="phase-label" fill="#6366f1">PLANUNG</text>
  <text x="450" y="100" class="phase-label" fill="#22c55e">HARDWARE</text>
  <text x="750" y="100" class="phase-label" fill="#f59e0b">SOFTWARE</text>
  <text x="1050" y="100" class="phase-label" fill="#ec4899">INTEGRATION</text>
  <text x="1250" y="100" class="phase-label" fill="#dc2626">ABSCHLUSS</text>
  
  <!-- ==================== ARROWS ==================== -->
  
  <!-- START → A (kritisch) -->
  <path d="M110 480 L130 480 L130 190 L150 190" fill="none" class="critical" marker-end="url(#arrowhead-critical)"/>
  
  <!-- START → B -->
  <path d="M110 480 L120 480 L120 320 L150 320" fill="none" class="normal" marker-end="url(#arrowhead)"/>
  
  <!-- A → C (kritisch) -->
  <path d="M270 210 L285 210 L285 420 L300 420" fill="none" class="critical" marker-end="url(#arrowhead-critical)"/>
  
  <!-- B → C -->
  <path d="M270 340 L290 340 L290 400 L300 400" fill="none" class="normal" marker-end="url(#arrowhead)"/>
  
  <!-- C → D (kritisch) -->
  <path d="M420 400 L435 400 L435 130 L510 130 L510 150" fill="none" class="critical" marker-end="url(#arrowhead-critical)"/>
  
  <!-- C → E -->
  <path d="M420 420 L440 420 L440 320 L450 320" fill="none" class="normal" marker-end="url(#arrowhead)"/>
  
  <!-- D → F (kritisch) -->
  <path d="M570 210 L585 210 L585 420 L600 420" fill="none" class="critical" marker-end="url(#arrowhead-critical)"/>
  
  <!-- E → F -->
  <path d="M570 340 L590 340 L590 400 L600 400" fill="none" class="normal" marker-end="url(#arrowhead)"/>
  
  <!-- D → G -->
  <path d="M460 230 L460 550 L600 550" fill="none" class="normal" marker-end="url(#arrowhead)"/>
  
  <!-- F → H (kritisch) -->
  <path d="M720 400 L735 400 L735 130 L810 130 L810 150" fill="none" class="critical" marker-end="url(#arrowhead-critical)"/>
  
  <!-- F → I (kritisch) -->
  <path d="M720 420 L740 420 L740 320 L750 320" fill="none" class="critical" marker-end="url(#arrowhead-critical)"/>
  
  <!-- G → I -->
  <path d="M720 530 L745 530 L745 340 L750 340" fill="none" class="normal" marker-end="url(#arrowhead)"/>
  
  <!-- H → J -->
  <path d="M870 190 L900 190" fill="none" class="normal" marker-end="url(#arrowhead)"/>
  
  <!-- I → K (kritisch) -->
  <path d="M870 320 L900 320" fill="none" class="critical" marker-end="url(#arrowhead-critical)"/>
  
  <!-- I → L -->
  <path d="M870 340 L880 340 L880 450 L900 450" fill="none" class="normal" marker-end="url(#arrowhead)"/>
  
  <!-- J → M -->
  <path d="M1020 210 L1035 210 L1035 300 L1050 300" fill="none" class="normal" marker-end="url(#arrowhead)"/>
  
  <!-- K → M (kritisch) -->
  <path d="M1020 320 L1050 320" fill="none" class="critical" marker-end="url(#arrowhead-critical)"/>
  
  <!-- L → M -->
  <path d="M1020 430 L1040 430 L1040 340 L1050 340" fill="none" class="normal" marker-end="url(#arrowhead)"/>
  
  <!-- M → N (kritisch) -->
  <path d="M1170 340 L1185 340 L1185 420 L1200 420" fill="none" class="critical" marker-end="url(#arrowhead-critical)"/>
  
  <!-- N → END (kritisch) -->
  <path d="M1320 460 L1335 460 L1335 480 L1350 480" fill="none" class="critical" marker-end="url(#arrowhead-critical)"/>
  
  <!-- ==================== NODES ==================== -->
  
  <!-- START Node -->
  <g transform="translate(50, 450)">
    <circle cx="30" cy="30" r="30" fill="#1e3a5f"/>
    <text x="30" y="35" text-anchor="middle" style="font: bold 14px Arial; fill: white;">START</text>
    <text x="30" y="75" text-anchor="middle" style="font: 9px Arial; fill: #666;">Nov 2025</text>
  </g>
  
  <!-- A: Projektidee & Pitch (kritisch) -->
  <g transform="translate(150, 150)">
    <rect x="0" y="0" width="120" height="80" rx="5" fill="#6366f1" stroke="#dc2626" stroke-width="3"/>
    <text x="60" y="15" text-anchor="middle" class="node-title">A: Pitch</text>
    <text x="60" y="30" text-anchor="middle" class="node-duration">2 Wochen</text>
    <line x1="10" y1="40" x2="110" y2="40" stroke="white" stroke-width="0.5"/>
    <text x="35" y="52" text-anchor="middle" class="node-dates">FAZ: 0</text>
    <text x="85" y="52" text-anchor="middle" class="node-dates">FEZ: 2</text>
    <text x="35" y="64" text-anchor="middle" class="node-dates">SAZ: 0</text>
    <text x="85" y="64" text-anchor="middle" class="node-dates">SEZ: 2</text>
    <text x="60" y="76" text-anchor="middle" class="node-responsible">Maxi</text>
  </g>
  
  <!-- B: Hardware-Recherche -->
  <g transform="translate(150, 280)">
    <rect x="0" y="0" width="120" height="80" rx="5" fill="#6366f1"/>
    <text x="60" y="15" text-anchor="middle" class="node-title">B: HW-Recherche</text>
    <text x="60" y="30" text-anchor="middle" class="node-duration">2 Wochen</text>
    <line x1="10" y1="40" x2="110" y2="40" stroke="white" stroke-width="0.5"/>
    <text x="35" y="52" text-anchor="middle" class="node-dates">FAZ: 1</text>
    <text x="85" y="52" text-anchor="middle" class="node-dates">FEZ: 3</text>
    <text x="35" y="64" text-anchor="middle" class="node-dates">SAZ: 1</text>
    <text x="85" y="64" text-anchor="middle" class="node-dates">SEZ: 3</text>
    <text x="60" y="76" text-anchor="middle" class="node-responsible">Alle</text>
  </g>
  
  <!-- C: Bauteile bestellen (kritisch) -->
  <g transform="translate(300, 380)">
    <rect x="0" y="0" width="120" height="80" rx="5" fill="#6366f1" stroke="#dc2626" stroke-width="3"/>
    <text x="60" y="15" text-anchor="middle" class="node-title">C: Bestellen</text>
    <text x="60" y="30" text-anchor="middle" class="node-duration">2 Wochen</text>
    <line x1="10" y1="40" x2="110" y2="40" stroke="white" stroke-width="0.5"/>
    <text x="35" y="52" text-anchor="middle" class="node-dates">FAZ: 3</text>
    <text x="85" y="52" text-anchor="middle" class="node-dates">FEZ: 5</text>
    <text x="35" y="64" text-anchor="middle" class="node-dates">SAZ: 3</text>
    <text x="85" y="64" text-anchor="middle" class="node-dates">SEZ: 5</text>
    <text x="60" y="76" text-anchor="middle" class="node-responsible">Maxi</text>
  </g>
  
  <!-- D: Einzeltests Sensoren (kritisch) -->
  <g transform="translate(450, 150)">
    <rect x="0" y="0" width="120" height="80" rx="5" fill="#22c55e" stroke="#dc2626" stroke-width="3"/>
    <text x="60" y="15" text-anchor="middle" class="node-title">D: Einzeltests</text>
    <text x="60" y="30" text-anchor="middle" class="node-duration">4 Wochen</text>
    <line x1="10" y1="40" x2="110" y2="40" stroke="white" stroke-width="0.5"/>
    <text x="35" y="52" text-anchor="middle" class="node-dates">FAZ: 5</text>
    <text x="85" y="52" text-anchor="middle" class="node-dates">FEZ: 9</text>
    <text x="35" y="64" text-anchor="middle" class="node-dates">SAZ: 5</text>
    <text x="85" y="64" text-anchor="middle" class="node-dates">SEZ: 9</text>
    <text x="60" y="76" text-anchor="middle" class="node-responsible">Alle ✓</text>
  </g>
  
  <!-- E: Display-Test -->
  <g transform="translate(450, 280)">
    <rect x="0" y="0" width="120" height="80" rx="5" fill="#22c55e"/>
    <text x="60" y="15" text-anchor="middle" class="node-title">E: Display-Test</text>
    <text x="60" y="30" text-anchor="middle" class="node-duration">3 Wochen</text>
    <line x1="10" y1="40" x2="110" y2="40" stroke="white" stroke-width="0.5"/>
    <text x="35" y="52" text-anchor="middle" class="node-dates">FAZ: 5</text>
    <text x="85" y="52" text-anchor="middle" class="node-dates">FEZ: 8</text>
    <text x="35" y="64" text-anchor="middle" class="node-dates">SAZ: 6</text>
    <text x="85" y="64" text-anchor="middle" class="node-dates">SEZ: 9</text>
    <text x="60" y="76" text-anchor="middle" class="node-responsible">Jannis ✓</text>
  </g>
  
  <!-- F: Level Shifter + Kondensatoren (kritisch) -->
  <g transform="translate(600, 380)">
    <rect x="0" y="0" width="120" height="80" rx="5" fill="#22c55e" stroke="#dc2626" stroke-width="3"/>
    <text x="60" y="15" text-anchor="middle" class="node-title">F: Level Shifter</text>
    <text x="60" y="30" text-anchor="middle" class="node-duration">2 Wochen</text>
    <line x1="10" y1="40" x2="110" y2="40" stroke="white" stroke-width="0.5"/>
    <text x="35" y="52" text-anchor="middle" class="node-dates">FAZ: 9</text>
    <text x="85" y="52" text-anchor="middle" class="node-dates">FEZ: 11</text>
    <text x="35" y="64" text-anchor="middle" class="node-dates">SAZ: 9</text>
    <text x="85" y="64" text-anchor="middle" class="node-dates">SEZ: 11</text>
    <text x="60" y="76" text-anchor="middle" class="node-responsible">Cedric</text>
  </g>
  
  <!-- G: MOSFET Backlight -->
  <g transform="translate(600, 510)">
    <rect x="0" y="0" width="120" height="80" rx="5" fill="#22c55e"/>
    <text x="60" y="15" text-anchor="middle" class="node-title">G: MOSFET BL</text>
    <text x="60" y="30" text-anchor="middle" class="node-duration">1 Woche</text>
    <line x1="10" y1="40" x2="110" y2="40" stroke="white" stroke-width="0.5"/>
    <text x="35" y="52" text-anchor="middle" class="node-dates">FAZ: 9</text>
    <text x="85" y="52" text-anchor="middle" class="node-dates">FEZ: 10</text>
    <text x="35" y="64" text-anchor="middle" class="node-dates">SAZ: 10</text>
    <text x="85" y="64" text-anchor="middle" class="node-dates">SEZ: 11</text>
    <text x="60" y="76" text-anchor="middle" class="node-responsible">Maxi</text>
  </g>
  
  <!-- H: Sensor-Modul (kritisch) -->
  <g transform="translate(750, 150)">
    <rect x="0" y="0" width="120" height="80" rx="5" fill="#f59e0b" stroke="#dc2626" stroke-width="3"/>
    <text x="60" y="15" text-anchor="middle" class="node-title">H: Sensor-Modul</text>
    <text x="60" y="30" text-anchor="middle" class="node-duration">2 Wochen</text>
    <line x1="10" y1="40" x2="110" y2="40" stroke="white" stroke-width="0.5"/>
    <text x="35" y="52" text-anchor="middle" class="node-dates">FAZ: 11</text>
    <text x="85" y="52" text-anchor="middle" class="node-dates">FEZ: 13</text>
    <text x="35" y="64" text-anchor="middle" class="node-dates">SAZ: 11</text>
    <text x="85" y="64" text-anchor="middle" class="node-dates">SEZ: 13</text>
    <text x="60" y="76" text-anchor="middle" class="node-responsible">Maxi</text>
  </g>
  
  <!-- I: Display-Modul (kritisch) -->
  <g transform="translate(750, 280)">
    <rect x="0" y="0" width="120" height="80" rx="5" fill="#f59e0b" stroke="#dc2626" stroke-width="3"/>
    <text x="60" y="15" text-anchor="middle" class="node-title">I: Display-Modul</text>
    <text x="60" y="30" text-anchor="middle" class="node-duration">3 Wochen</text>
    <line x1="10" y1="40" x2="110" y2="40" stroke="white" stroke-width="0.5"/>
    <text x="35" y="52" text-anchor="middle" class="node-dates">FAZ: 11</text>
    <text x="85" y="52" text-anchor="middle" class="node-dates">FEZ: 14</text>
    <text x="35" y="64" text-anchor="middle" class="node-dates">SAZ: 11</text>
    <text x="85" y="64" text-anchor="middle" class="node-dates">SEZ: 14</text>
    <text x="60" y="76" text-anchor="middle" class="node-responsible">Jannis</text>
  </g>
  
  <!-- J: Clean-UI -->
  <g transform="translate(900, 150)">
    <rect x="0" y="0" width="120" height="80" rx="5" fill="#f59e0b"/>
    <text x="60" y="15" text-anchor="middle" class="node-title">J: Clean-UI</text>
    <text x="60" y="30" text-anchor="middle" class="node-duration">2 Wochen</text>
    <line x1="10" y1="40" x2="110" y2="40" stroke="white" stroke-width="0.5"/>
    <text x="35" y="52" text-anchor="middle" class="node-dates">FAZ: 14</text>
    <text x="85" y="52" text-anchor="middle" class="node-dates">FEZ: 16</text>
    <text x="35" y="64" text-anchor="middle" class="node-dates">SAZ: 14</text>
    <text x="85" y="64" text-anchor="middle" class="node-dates">SEZ: 16</text>
    <text x="60" y="76" text-anchor="middle" class="node-responsible">Jannis</text>
  </g>
  
  <!-- K: Detailed-UI (kritisch) -->
  <g transform="translate(900, 280)">
    <rect x="0" y="0" width="120" height="80" rx="5" fill="#f59e0b" stroke="#dc2626" stroke-width="3"/>
    <text x="60" y="15" text-anchor="middle" class="node-title">K: Detailed-UI</text>
    <text x="60" y="30" text-anchor="middle" class="node-duration">2 Wochen</text>
    <line x1="10" y1="40" x2="110" y2="40" stroke="white" stroke-width="0.5"/>
    <text x="35" y="52" text-anchor="middle" class="node-dates">FAZ: 14</text>
    <text x="85" y="52" text-anchor="middle" class="node-dates">FEZ: 16</text>
    <text x="35" y="64" text-anchor="middle" class="node-dates">SAZ: 14</text>
    <text x="85" y="64" text-anchor="middle" class="node-dates">SEZ: 16</text>
    <text x="60" y="76" text-anchor="middle" class="node-responsible">Cedric</text>
  </g>
  
  <!-- L: Radar Dimming/Wake -->
  <g transform="translate(900, 410)">
    <rect x="0" y="0" width="120" height="80" rx="5" fill="#f59e0b"/>
    <text x="60" y="15" text-anchor="middle" class="node-title">L: Radar Dim</text>
    <text x="60" y="30" text-anchor="middle" class="node-duration">1 Woche</text>
    <line x1="10" y1="40" x2="110" y2="40" stroke="white" stroke-width="0.5"/>
    <text x="35" y="52" text-anchor="middle" class="node-dates">FAZ: 14</text>
    <text x="85" y="52" text-anchor="middle" class="node-dates">FEZ: 15</text>
    <text x="35" y="64" text-anchor="middle" class="node-dates">SAZ: 15</text>
    <text x="85" y="64" text-anchor="middle" class="node-dates">SEZ: 16</text>
    <text x="60" y="76" text-anchor="middle" class="node-responsible">Cedric</text>
  </g>
  
  <!-- M: Gehäuse (kritisch) -->
  <g transform="translate(1050, 280)">
    <rect x="0" y="0" width="120" height="80" rx="5" fill="#ec4899" stroke="#dc2626" stroke-width="3"/>
    <text x="60" y="15" text-anchor="middle" class="node-title">M: Gehäuse</text>
    <text x="60" y="30" text-anchor="middle" class="node-duration">2 Wochen</text>
    <line x1="10" y1="40" x2="110" y2="40" stroke="white" stroke-width="0.5"/>
    <text x="35" y="52" text-anchor="middle" class="node-dates">FAZ: 16</text>
    <text x="85" y="52" text-anchor="middle" class="node-dates">FEZ: 18</text>
    <text x="35" y="64" text-anchor="middle" class="node-dates">SAZ: 16</text>
    <text x="85" y="64" text-anchor="middle" class="node-dates">SEZ: 18</text>
    <text x="60" y="76" text-anchor="middle" class="node-responsible">Cedric</text>
  </g>
  
  <!-- N: Test & Doku (kritisch) -->
  <g transform="translate(1200, 380)">
    <rect x="0" y="0" width="120" height="80" rx="5" fill="#dc2626" stroke="#991b1b" stroke-width="3"/>
    <text x="60" y="15" text-anchor="middle" class="node-title">N: Test &amp; Doku</text>
    <text x="60" y="30" text-anchor="middle" class="node-duration">2 Wochen</text>
    <line x1="10" y1="40" x2="110" y2="40" stroke="white" stroke-width="0.5"/>
    <text x="35" y="52" text-anchor="middle" class="node-dates">FAZ: 18</text>
    <text x="85" y="52" text-anchor="middle" class="node-dates">FEZ: 20</text>
    <text x="35" y="64" text-anchor="middle" class="node-dates">SAZ: 18</text>
    <text x="85" y="64" text-anchor="middle" class="node-dates">SEZ: 20</text>
    <text x="60" y="76" text-anchor="middle" class="node-responsible">Alle</text>
  </g>
  
  <!-- END Node -->
  <g transform="translate(1320, 450)">
    <circle cx="30" cy="30" r="30" fill="#1e3a5f" stroke="#dc2626" stroke-width="3"/>
    <text x="30" y="28" text-anchor="middle" style="font: bold 12px Arial; fill: white;">ENDE</text>
    <text x="30" y="42" text-anchor="middle" style="font: 9px Arial; fill: #94a3b8;">13.03.</text>
    <text x="30" y="75" text-anchor="middle" style="font: 9px Arial; fill: #666;">Woche 20</text>
  </g>
  
  <!-- ==================== LEGEND ==================== -->
  <g transform="translate(50, 700)">
    <rect x="0" y="0" width="1300" height="180" rx="8" fill="white" stroke="#e5e7eb"/>
    
    <text x="650" y="25" text-anchor="middle" style="font: bold 14px Arial; fill: #1e3a5f;">Legende &amp; Kritischer Pfad</text>
    
    <!-- Node explanation -->
    <g transform="translate(50, 45)">
      <rect x="0" y="0" width="120" height="80" rx="5" fill="#6b7280"/>
      <text x="60" y="15" text-anchor="middle" class="node-title">[Vorgangsname]</text>
      <text x="60" y="30" text-anchor="middle" class="node-duration">Dauer</text>
      <line x1="10" y1="40" x2="110" y2="40" stroke="white" stroke-width="0.5"/>
      <text x="35" y="52" text-anchor="middle" class="node-dates">FAZ</text>
      <text x="85" y="52" text-anchor="middle" class="node-dates">FEZ</text>
      <text x="35" y="64" text-anchor="middle" class="node-dates">SAZ</text>
      <text x="85" y="64" text-anchor="middle" class="node-dates">SEZ</text>
      <text x="60" y="76" text-anchor="middle" class="node-responsible">Verantwortlich</text>
      
      <text x="140" y="20" style="font: 10px Arial; fill: #333;">FAZ = Frühester Anfangszeitpunkt</text>
      <text x="140" y="35" style="font: 10px Arial; fill: #333;">FEZ = Frühester Endzeitpunkt</text>
      <text x="140" y="50" style="font: 10px Arial; fill: #333;">SAZ = Spätester Anfangszeitpunkt</text>
      <text x="140" y="65" style="font: 10px Arial; fill: #333;">SEZ = Spätester Endzeitpunkt</text>
      <text x="140" y="80" style="font: 10px Arial; fill: #333;">Puffer = SAZ - FAZ (= 0 auf krit. Pfad)</text>
    </g>
    
    <!-- Color legend -->
    <g transform="translate(450, 50)">
      <rect x="0" y="0" width="20" height="15" rx="2" fill="#6366f1"/>
      <text x="30" y="12" class="legend-text">Planung</text>
      
      <rect x="100" y="0" width="20" height="15" rx="2" fill="#22c55e"/>
      <text x="130" y="12" class="legend-text">Hardware</text>
      
      <rect x="200" y="0" width="20" height="15" rx="2" fill="#f59e0b"/>
      <text x="230" y="12" class="legend-text">Software</text>
      
      <rect x="300" y="0" width="20" height="15" rx="2" fill="#ec4899"/>
      <text x="330" y="12" class="legend-text">Integration</text>
      
      <rect x="400" y="0" width="20" height="15" rx="2" fill="#dc2626"/>
      <text x="430" y="12" class="legend-text">Abschluss</text>
    </g>
    
    <!-- Arrow legend -->
    <g transform="translate(450, 80)">
      <line x1="0" y1="7" x2="40" y2="7" stroke="#dc2626" stroke-width="2" marker-end="url(#arrowhead-critical)"/>
      <text x="55" y="12" class="legend-text">Kritischer Pfad (kein Puffer)</text>
      
      <line x1="200" y1="7" x2="240" y2="7" stroke="#6b7280" stroke-width="2" marker-end="url(#arrowhead)"/>
      <text x="255" y="12" class="legend-text">Nicht-kritische Verbindung</text>
      
      <rect x="420" y="0" width="20" height="15" rx="2" fill="none" stroke="#dc2626" stroke-width="3"/>
      <text x="450" y="12" class="legend-text">Vorgang auf kritischem Pfad</text>
    </g>
    
    <!-- Critical Path -->
    <g transform="translate(50, 140)">
      <text x="0" y="0" style="font: bold 12px Arial; fill: #dc2626;">Kritischer Pfad (20 Wochen):</text>
      <text x="0" y="20" style="font: 11px Arial; fill: #333;">START → A (Pitch) → C (Bestellen) → D (Einzeltests) → F (Level Shifter) → I (Display-Modul) → K (Detailed-UI) → M (Gehäuse) → N (Test &amp; Doku) → ENDE</text>
      <text x="0" y="38" style="font: italic 10px Arial; fill: #666;">Verzögerung auf diesem Pfad verzögert das gesamte Projekt!</text>
    </g>
  </g>
  
  <!-- Footer -->
  <text x="700" y="920" text-anchor="middle" style="font: 10px Arial; fill: #999;">InspectAir Netzplan | Zeiteinheit: Wochen ab Projektstart (Nov 2025) | Abgabe Woche 20 = 13.03.2026</text>
  <text x="700" y="940" text-anchor="middle" style="font: 10px Arial; fill: #999;">Team: Maxi, Jannis, Cedric | DHBW Ravensburg</text>
</svg>
